<svg width="800" height="800" viewBox="0 0 800 800" fill="none" xmlns="http://www.w3.org/2000/svg">
<g clip-path="url(#clip0_6_3281)">
<rect width="800" height="800" fill="white"/>
<g filter="url(#filter0_f_6_3281)">
<circle cx="373.629" cy="188.536" r="127.536" fill="black"/>
<circle cx="127.536" cy="127.536" r="127.536" transform="matrix(-1 0 0 1 691.899 168.176)" fill="black"/>
<circle cx="127.536" cy="127.536" r="127.536" transform="matrix(-1 0 0 1 649.422 210.653)" fill="black"/>
<circle cx="338.285" cy="512.344" r="161.742" fill="black"/>
<circle cx="388.453" cy="438.233" r="161.742" fill="black"/>
<circle cx="101.045" cy="101.045" r="101.045" transform="matrix(0.976166 0.217027 0.217027 -0.976166 185.665 359.562)" fill="black"/>
<ellipse cx="334.599" cy="375.285" rx="182.923" ry="173.892" transform="rotate(175.836 334.599 375.285)" fill="black"/>
<ellipse cx="126.972" cy="120.704" rx="126.972" ry="120.704" transform="matrix(0.517744 0.855536 0.855536 -0.517744 345.288 400.647)" fill="black"/>
<circle cx="415.408" cy="316.968" r="157.913" fill="black"/>
<circle cx="256.925" cy="459.488" r="88.3629" fill="black"/>
</g>
<g style="mix-blend-mode:color-dodge">
<rect width="800" height="800" fill="#878787"/>
</g>
<g style="mix-blend-mode:color-burn">
<rect width="1065.6" height="1065.6" transform="matrix(-1 0 0 1 932.8 -132.8)" fill="url(#paint0_linear_6_3281)"/>
</g>
<g style="mix-blend-mode:screen">
<rect width="800" height="800" fill="url(#paint1_linear_6_3281)"/>
</g>
<path d="M80 98L97.8182 80L115.636 98L133.455 80L151.273 98L169.091 80L186.909 98L204.727 80L222.545 98L240.364 80L258.182 98L276 80" stroke="#28384B" stroke-width="3" stroke-linecap="round"/>
<path d="M80 98L97.8182 80L115.636 98L133.455 80L151.273 98L169.091 80L186.909 98L204.727 80L222.545 98L240.364 80L258.182 98L276 80" stroke="#28384B" stroke-width="3" stroke-linecap="round"/>
<path d="M80 125L97.8182 107L115.636 125L133.455 107L151.273 125L169.091 107L186.909 125L204.727 107L222.545 125L240.364 107L258.182 125L276 107" stroke="#28384B" stroke-width="3" stroke-linecap="round"/>
<path d="M80 151L97.8182 133L115.636 151L133.455 133L151.273 151L169.091 133L186.909 151L204.727 133L222.545 151L240.364 133L258.182 151L276 133" stroke="#28384B" stroke-width="3" stroke-linecap="round"/>
<path d="M80 178L97.8182 160L115.636 178L133.455 160L151.273 178L169.091 160L186.909 178L204.727 160L222.545 178L240.364 160L258.182 178L276 160" stroke="#28384B" stroke-width="3" stroke-linecap="round"/>
<path d="M80 205L97.8182 187L115.636 205L133.455 187L151.273 205L169.091 187L186.909 205L204.727 187L222.545 205L240.364 187L258.182 205L276 187" stroke="#28384B" stroke-width="3" stroke-linecap="round"/>
<path d="M80 231L97.8182 214L115.636 231L133.455 214L151.273 231L169.091 214L186.909 231L204.727 214L222.545 231L240.364 214L258.182 231L276 214" stroke="#28384B" stroke-width="3" stroke-linecap="round"/>
<path d="M80 258L97.8182 240L115.636 258L133.455 240L151.273 258L169.091 240L186.909 258L204.727 240L222.545 258L240.364 240L258.182 258L276 240" stroke="#28384B" stroke-width="3" stroke-linecap="round"/>
</g>
<defs>
<filter id="filter0_f_6_3281" x="-25.489" y="-39" width="865.123" height="867" filterUnits="userSpaceOnUse" color-interpolation-filters="sRGB">
<feFlood flood-opacity="0" result="BackgroundImageFix"/>
<feBlend mode="normal" in="SourceGraphic" in2="BackgroundImageFix" result="shape"/>
<feGaussianBlur stdDeviation="50" result="effect1_foregroundBlur_6_3281"/>
</filter>
<linearGradient id="paint0_linear_6_3281" x1="532.8" y1="299.7" x2="532.8" y2="765.9" gradientUnits="userSpaceOnUse">
<stop stop-color="#111111"/>
<stop offset="0.0001" stop-color="#161616"/>
<stop offset="1" stop-color="white"/>
</linearGradient>
<linearGradient id="paint1_linear_6_3281" x1="400" y1="195" x2="400" y2="630" gradientUnits="userSpaceOnUse">
<stop stop-color="#00D2FF"/>
<stop offset="1" stop-color="#3A7BD5"/>
</linearGradient>
<clipPath id="clip0_6_3281">
<rect width="800" height="800" fill="white"/>
</clipPath>
</defs>
</svg>
